<svg width="87" height="23" viewBox="0 0 87 23" fill="none" xmlns="http://www.w3.org/2000/svg">
<path d="M8.48 22.21C6.94 22.21 5.56 21.96 4.34 21.46C3.12 20.96 2.14 20.22 1.4 19.24C0.68 18.26 0.3 17.08 0.26 15.7H5.72C5.8 16.48 6.07 17.08 6.53 17.5C6.99 17.9 7.59 18.1 8.33 18.1C9.09 18.1 9.69 17.93 10.13 17.59C10.57 17.23 10.79 16.74 10.79 16.12C10.79 15.6 10.61 15.17 10.25 14.83C9.91 14.49 9.48 14.21 8.96 13.99C8.46 13.77 7.74 13.52 6.8 13.24C5.44 12.82 4.33 12.4 3.47 11.98C2.61 11.56 1.87 10.94 1.25 10.12C0.63 9.3 0.32 8.23 0.32 6.91C0.32 4.95 1.03 3.42 2.45 2.32C3.87 1.2 5.72 0.64 8 0.64C10.32 0.64 12.19 1.2 13.61 2.32C15.03 3.42 15.79 4.96 15.89 6.94H10.34C10.3 6.26 10.05 5.73 9.59 5.35C9.13 4.95 8.54 4.75 7.82 4.75C7.2 4.75 6.7 4.92 6.32 5.26C5.94 5.58 5.75 6.05 5.75 6.67C5.75 7.35 6.07 7.88 6.71 8.26C7.35 8.64 8.35 9.05 9.71 9.49C11.07 9.95 12.17 10.39 13.01 10.81C13.87 11.23 14.61 11.84 15.23 12.64C15.85 13.44 16.16 14.47 16.16 15.73C16.16 16.93 15.85 18.02 15.23 19C14.63 19.98 13.75 20.76 12.59 21.34C11.43 21.92 10.06 22.21 8.48 22.21ZM18.297 13.6C18.297 11.88 18.617 10.37 19.257 9.07C19.917 7.77 20.807 6.77 21.927 6.07C23.047 5.37 24.297 5.02 25.677 5.02C26.857 5.02 27.887 5.26 28.767 5.74C29.667 6.22 30.357 6.85 30.837 7.63V5.26H35.967V22H30.837V19.63C30.337 20.41 29.637 21.04 28.737 21.52C27.857 22 26.827 22.24 25.647 22.24C24.287 22.24 23.047 21.89 21.927 21.19C20.807 20.47 19.917 19.46 19.257 18.16C18.617 16.84 18.297 15.32 18.297 13.6ZM30.837 13.63C30.837 12.35 30.477 11.34 29.757 10.6C29.057 9.86 28.197 9.49 27.177 9.49C26.157 9.49 25.287 9.86 24.567 10.6C23.867 11.32 23.517 12.32 23.517 13.6C23.517 14.88 23.867 15.9 24.567 16.66C25.287 17.4 26.157 17.77 27.177 17.77C28.197 17.77 29.057 17.4 29.757 16.66C30.477 15.92 30.837 14.91 30.837 13.63ZM61.0384 5.08C63.1184 5.08 64.7684 5.71 65.9884 6.97C67.2284 8.23 67.8484 9.98 67.8484 12.22V22H62.7484V12.91C62.7484 11.83 62.4584 11 61.8784 10.42C61.3184 9.82 60.5384 9.52 59.5384 9.52C58.5384 9.52 57.7484 9.82 57.1684 10.42C56.6084 11 56.3284 11.83 56.3284 12.91V22H51.2284V12.91C51.2284 11.83 50.9384 11 50.3584 10.42C49.7984 9.82 49.0184 9.52 48.0184 9.52C47.0184 9.52 46.2284 9.82 45.6484 10.42C45.0884 11 44.8084 11.83 44.8084 12.91V22H39.6784V5.26H44.8084V7.36C45.3284 6.66 46.0084 6.11 46.8484 5.71C47.6884 5.29 48.6384 5.08 49.6984 5.08C50.9584 5.08 52.0784 5.35 53.0584 5.89C54.0584 6.43 54.8384 7.2 55.3984 8.2C55.9784 7.28 56.7684 6.53 57.7684 5.95C58.7684 5.37 59.8584 5.08 61.0384 5.08ZM83.2262 22L74.6162 12.46V22H71.8862V1.09H74.6162V10.78L83.2562 1.09H86.7062L77.2262 11.56L86.7962 22H83.2262Z" fill="#012747"/>
</svg>
