<svg width="420" height="287" viewBox="0 0 420 287" fill="none" xmlns="http://www.w3.org/2000/svg">
<rect x="0.5" y="0.5" width="419" height="88" rx="9.5" fill="#FFFBF5" stroke="black"/>
<rect x="0.5" y="198.5" width="419" height="88" rx="9.5" fill="#FFFBF5" stroke="black"/>
<rect x="0.5" y="99.5" width="199" height="88" rx="9.5" fill="#FFFBF5" stroke="black"/>
<rect x="220.5" y="99.5" width="199" height="88" rx="9.5" fill="#FFFBF5" stroke="black"/>
<path d="M85.418 36.556V39.57H79.126V42.826H83.834V45.752H79.126V52H75.364V36.556H85.418ZM91.1573 41.77C91.5973 41.0953 92.1473 40.5673 92.8073 40.186C93.4673 39.79 94.2006 39.592 95.0073 39.592V43.574H93.9733C93.0346 43.574 92.3306 43.7793 91.8613 44.19C91.3919 44.586 91.1573 45.29 91.1573 46.302V52H87.3953V39.724H91.1573V41.77ZM102.393 52.176C101.191 52.176 100.105 51.9193 99.1374 51.406C98.1841 50.8927 97.4287 50.1593 96.8714 49.206C96.3287 48.2527 96.0574 47.138 96.0574 45.862C96.0574 44.6007 96.3361 43.4933 96.8934 42.54C97.4507 41.572 98.2134 40.8313 99.1814 40.318C100.149 39.8047 101.235 39.548 102.437 39.548C103.64 39.548 104.725 39.8047 105.693 40.318C106.661 40.8313 107.424 41.572 107.981 42.54C108.539 43.4933 108.817 44.6007 108.817 45.862C108.817 47.1233 108.531 48.238 107.959 49.206C107.402 50.1593 106.632 50.8927 105.649 51.406C104.681 51.9193 103.596 52.176 102.393 52.176ZM102.393 48.92C103.112 48.92 103.721 48.656 104.219 48.128C104.733 47.6 104.989 46.8447 104.989 45.862C104.989 44.8793 104.74 44.124 104.241 43.596C103.757 43.068 103.156 42.804 102.437 42.804C101.704 42.804 101.095 43.068 100.611 43.596C100.127 44.1093 99.8854 44.8647 99.8854 45.862C99.8854 46.8447 100.12 47.6 100.589 48.128C101.073 48.656 101.675 48.92 102.393 48.92ZM118.293 39.592C119.731 39.592 120.875 40.0613 121.725 41C122.591 41.924 123.023 43.2 123.023 44.828V52H119.283V45.334C119.283 44.5127 119.071 43.8747 118.645 43.42C118.22 42.9653 117.648 42.738 116.929 42.738C116.211 42.738 115.639 42.9653 115.213 43.42C114.788 43.8747 114.575 44.5127 114.575 45.334V52H110.813V39.724H114.575V41.352C114.957 40.8093 115.47 40.384 116.115 40.076C116.761 39.7533 117.487 39.592 118.293 39.592ZM132.479 48.81V52H130.565C129.201 52 128.138 51.67 127.375 51.01C126.613 50.3353 126.231 49.2427 126.231 47.732V42.848H124.735V39.724H126.231V36.732H129.993V39.724H132.457V42.848H129.993V47.776C129.993 48.1427 130.081 48.4067 130.257 48.568C130.433 48.7293 130.727 48.81 131.137 48.81H132.479ZM144.035 42.716V45.84H134.355V42.716H144.035ZM151.099 39.57V42.694H156.137V45.598H151.099V48.986H156.797V52H147.337V36.556H156.797V39.57H151.099ZM166.719 39.592C168.156 39.592 169.3 40.0613 170.151 41C171.016 41.924 171.449 43.2 171.449 44.828V52H167.709V45.334C167.709 44.5127 167.496 43.8747 167.071 43.42C166.646 42.9653 166.074 42.738 165.355 42.738C164.636 42.738 164.064 42.9653 163.639 43.42C163.214 43.8747 163.001 44.5127 163.001 45.334V52H159.239V39.724H163.001V41.352C163.382 40.8093 163.896 40.384 164.541 40.076C165.186 39.7533 165.912 39.592 166.719 39.592ZM173.315 45.84C173.315 44.5787 173.55 43.4713 174.019 42.518C174.503 41.5647 175.156 40.8313 175.977 40.318C176.799 39.8047 177.715 39.548 178.727 39.548C179.534 39.548 180.267 39.7167 180.927 40.054C181.602 40.3913 182.13 40.846 182.511 41.418V35.72H186.273V52H182.511V50.24C182.159 50.8267 181.653 51.296 180.993 51.648C180.348 52 179.593 52.176 178.727 52.176C177.715 52.176 176.799 51.9193 175.977 51.406C175.156 50.878 174.503 50.1373 174.019 49.184C173.55 48.216 173.315 47.1013 173.315 45.84ZM182.511 45.862C182.511 44.9233 182.247 44.1827 181.719 43.64C181.206 43.0973 180.575 42.826 179.827 42.826C179.079 42.826 178.441 43.0973 177.913 43.64C177.4 44.168 177.143 44.9013 177.143 45.84C177.143 46.7787 177.4 47.5267 177.913 48.084C178.441 48.6267 179.079 48.898 179.827 48.898C180.575 48.898 181.206 48.6267 181.719 48.084C182.247 47.5413 182.511 46.8007 182.511 45.862ZM199.443 36.556C201.071 36.556 202.494 36.8787 203.711 37.524C204.928 38.1693 205.867 39.0787 206.527 40.252C207.202 41.4107 207.539 42.7527 207.539 44.278C207.539 45.7887 207.202 47.1307 206.527 48.304C205.867 49.4773 204.921 50.3867 203.689 51.032C202.472 51.6773 201.056 52 199.443 52H193.657V36.556H199.443ZM199.201 48.744C200.624 48.744 201.731 48.3553 202.523 47.578C203.315 46.8007 203.711 45.7007 203.711 44.278C203.711 42.8553 203.315 41.748 202.523 40.956C201.731 40.164 200.624 39.768 199.201 39.768H197.419V48.744H199.201ZM221.213 45.664C221.213 46.016 221.191 46.3827 221.147 46.764H212.633C212.692 47.5267 212.934 48.1133 213.359 48.524C213.799 48.92 214.335 49.118 214.965 49.118C215.904 49.118 216.557 48.722 216.923 47.93H220.927C220.722 48.7367 220.348 49.4627 219.805 50.108C219.277 50.7533 218.61 51.2593 217.803 51.626C216.997 51.9927 216.095 52.176 215.097 52.176C213.895 52.176 212.824 51.9193 211.885 51.406C210.947 50.8927 210.213 50.1593 209.685 49.206C209.157 48.2527 208.893 47.138 208.893 45.862C208.893 44.586 209.15 43.4713 209.663 42.518C210.191 41.5647 210.925 40.8313 211.863 40.318C212.802 39.8047 213.88 39.548 215.097 39.548C216.285 39.548 217.341 39.7973 218.265 40.296C219.189 40.7947 219.908 41.506 220.421 42.43C220.949 43.354 221.213 44.432 221.213 45.664ZM217.363 44.674C217.363 44.0287 217.143 43.5153 216.703 43.134C216.263 42.7527 215.713 42.562 215.053 42.562C214.423 42.562 213.887 42.7453 213.447 43.112C213.022 43.4787 212.758 43.9993 212.655 44.674H217.363ZM228.72 48.48L231.382 39.724H235.386L231.03 52H226.388L222.032 39.724H226.058L228.72 48.48ZM248.541 45.664C248.541 46.016 248.519 46.3827 248.475 46.764H239.961C240.02 47.5267 240.262 48.1133 240.687 48.524C241.127 48.92 241.663 49.118 242.293 49.118C243.232 49.118 243.885 48.722 244.251 47.93H248.255C248.05 48.7367 247.676 49.4627 247.133 50.108C246.605 50.7533 245.938 51.2593 245.131 51.626C244.325 51.9927 243.423 52.176 242.425 52.176C241.223 52.176 240.152 51.9193 239.213 51.406C238.275 50.8927 237.541 50.1593 237.013 49.206C236.485 48.2527 236.221 47.138 236.221 45.862C236.221 44.586 236.478 43.4713 236.991 42.518C237.519 41.5647 238.253 40.8313 239.191 40.318C240.13 39.8047 241.208 39.548 242.425 39.548C243.613 39.548 244.669 39.7973 245.593 40.296C246.517 40.7947 247.236 41.506 247.749 42.43C248.277 43.354 248.541 44.432 248.541 45.664ZM244.691 44.674C244.691 44.0287 244.471 43.5153 244.031 43.134C243.591 42.7527 243.041 42.562 242.381 42.562C241.751 42.562 241.215 42.7453 240.775 43.112C240.35 43.4787 240.086 43.9993 239.983 44.674H244.691ZM254.288 35.72V52H250.526V35.72H254.288ZM262.602 52.176C261.4 52.176 260.314 51.9193 259.346 51.406C258.393 50.8927 257.638 50.1593 257.08 49.206C256.538 48.2527 256.266 47.138 256.266 45.862C256.266 44.6007 256.545 43.4933 257.102 42.54C257.66 41.572 258.422 40.8313 259.39 40.318C260.358 39.8047 261.444 39.548 262.646 39.548C263.849 39.548 264.934 39.8047 265.902 40.318C266.87 40.8313 267.633 41.572 268.19 42.54C268.748 43.4933 269.026 44.6007 269.026 45.862C269.026 47.1233 268.74 48.238 268.168 49.206C267.611 50.1593 266.841 50.8927 265.858 51.406C264.89 51.9193 263.805 52.176 262.602 52.176ZM262.602 48.92C263.321 48.92 263.93 48.656 264.428 48.128C264.942 47.6 265.198 46.8447 265.198 45.862C265.198 44.8793 264.949 44.124 264.45 43.596C263.966 43.068 263.365 42.804 262.646 42.804C261.913 42.804 261.304 43.068 260.82 43.596C260.336 44.1093 260.094 44.8647 260.094 45.862C260.094 46.8447 260.329 47.6 260.798 48.128C261.282 48.656 261.884 48.92 262.602 48.92ZM274.784 41.462C275.151 40.89 275.657 40.428 276.302 40.076C276.948 39.724 277.703 39.548 278.568 39.548C279.58 39.548 280.497 39.8047 281.318 40.318C282.14 40.8313 282.785 41.5647 283.254 42.518C283.738 43.4713 283.98 44.5787 283.98 45.84C283.98 47.1013 283.738 48.216 283.254 49.184C282.785 50.1373 282.14 50.878 281.318 51.406C280.497 51.9193 279.58 52.176 278.568 52.176C277.718 52.176 276.962 52 276.302 51.648C275.657 51.296 275.151 50.8413 274.784 50.284V57.852H271.022V39.724H274.784V41.462ZM280.152 45.84C280.152 44.9013 279.888 44.168 279.36 43.64C278.847 43.0973 278.209 42.826 277.446 42.826C276.698 42.826 276.06 43.0973 275.532 43.64C275.019 44.1827 274.762 44.9233 274.762 45.862C274.762 46.8007 275.019 47.5413 275.532 48.084C276.06 48.6267 276.698 48.898 277.446 48.898C278.194 48.898 278.832 48.6267 279.36 48.084C279.888 47.5267 280.152 46.7787 280.152 45.84ZM301.618 39.592C303.143 39.592 304.353 40.054 305.248 40.978C306.157 41.902 306.612 43.1853 306.612 44.828V52H302.872V45.334C302.872 44.542 302.659 43.9333 302.234 43.508C301.823 43.068 301.251 42.848 300.518 42.848C299.785 42.848 299.205 43.068 298.78 43.508C298.369 43.9333 298.164 44.542 298.164 45.334V52H294.424V45.334C294.424 44.542 294.211 43.9333 293.786 43.508C293.375 43.068 292.803 42.848 292.07 42.848C291.337 42.848 290.757 43.068 290.332 43.508C289.921 43.9333 289.716 44.542 289.716 45.334V52H285.954V39.724H289.716V41.264C290.097 40.7507 290.596 40.3473 291.212 40.054C291.828 39.746 292.525 39.592 293.302 39.592C294.226 39.592 295.047 39.79 295.766 40.186C296.499 40.582 297.071 41.1467 297.482 41.88C297.907 41.2053 298.487 40.6553 299.22 40.23C299.953 39.8047 300.753 39.592 301.618 39.592ZM320.815 45.664C320.815 46.016 320.793 46.3827 320.749 46.764H312.235C312.294 47.5267 312.536 48.1133 312.961 48.524C313.401 48.92 313.936 49.118 314.567 49.118C315.506 49.118 316.158 48.722 316.525 47.93H320.529C320.324 48.7367 319.95 49.4627 319.407 50.108C318.879 50.7533 318.212 51.2593 317.405 51.626C316.598 51.9927 315.696 52.176 314.699 52.176C313.496 52.176 312.426 51.9193 311.487 51.406C310.548 50.8927 309.815 50.1593 309.287 49.206C308.759 48.2527 308.495 47.138 308.495 45.862C308.495 44.586 308.752 43.4713 309.265 42.518C309.793 41.5647 310.526 40.8313 311.465 40.318C312.404 39.8047 313.482 39.548 314.699 39.548C315.887 39.548 316.943 39.7973 317.867 40.296C318.791 40.7947 319.51 41.506 320.023 42.43C320.551 43.354 320.815 44.432 320.815 45.664ZM316.965 44.674C316.965 44.0287 316.745 43.5153 316.305 43.134C315.865 42.7527 315.315 42.562 314.655 42.562C314.024 42.562 313.489 42.7453 313.049 43.112C312.624 43.4787 312.36 43.9993 312.257 44.674H316.965ZM330.28 39.592C331.717 39.592 332.861 40.0613 333.712 41C334.577 41.924 335.01 43.2 335.01 44.828V52H331.27V45.334C331.27 44.5127 331.057 43.8747 330.632 43.42C330.206 42.9653 329.634 42.738 328.916 42.738C328.197 42.738 327.625 42.9653 327.2 43.42C326.774 43.8747 326.562 44.5127 326.562 45.334V52H322.8V39.724H326.562V41.352C326.943 40.8093 327.456 40.384 328.102 40.076C328.747 39.7533 329.473 39.592 330.28 39.592ZM344.466 48.81V52H342.552C341.188 52 340.124 51.67 339.362 51.01C338.599 50.3353 338.218 49.2427 338.218 47.732V42.848H336.722V39.724H338.218V36.732H341.98V39.724H344.444V42.848H341.98V47.776C341.98 48.1427 342.068 48.4067 342.244 48.568C342.42 48.7293 342.713 48.81 343.124 48.81H344.466Z" fill="#012747"/>
<path d="M26.726 242.256C26.726 240.731 27.056 239.374 27.716 238.186C28.376 236.983 29.2927 236.052 30.466 235.392C31.654 234.717 32.996 234.38 34.492 234.38C36.3253 234.38 37.8947 234.864 39.2 235.832C40.5053 236.8 41.378 238.12 41.818 239.792H37.682C37.374 239.147 36.934 238.655 36.362 238.318C35.8047 237.981 35.1667 237.812 34.448 237.812C33.2893 237.812 32.3507 238.215 31.632 239.022C30.9133 239.829 30.554 240.907 30.554 242.256C30.554 243.605 30.9133 244.683 31.632 245.49C32.3507 246.297 33.2893 246.7 34.448 246.7C35.1667 246.7 35.8047 246.531 36.362 246.194C36.934 245.857 37.374 245.365 37.682 244.72H41.818C41.378 246.392 40.5053 247.712 39.2 248.68C37.8947 249.633 36.3253 250.11 34.492 250.11C32.996 250.11 31.654 249.78 30.466 249.12C29.2927 248.445 28.376 247.514 27.716 246.326C27.056 245.138 26.726 243.781 26.726 242.256ZM56.2438 237.724V250H52.4818V248.328C52.1005 248.871 51.5798 249.311 50.9198 249.648C50.2745 249.971 49.5558 250.132 48.7638 250.132C47.8251 250.132 46.9965 249.927 46.2778 249.516C45.5591 249.091 45.0018 248.482 44.6058 247.69C44.2098 246.898 44.0118 245.967 44.0118 244.896V237.724H47.7518V244.39C47.7518 245.211 47.9645 245.849 48.3898 246.304C48.8151 246.759 49.3871 246.986 50.1058 246.986C50.8391 246.986 51.4185 246.759 51.8438 246.304C52.2691 245.849 52.4818 245.211 52.4818 244.39V237.724H56.2438ZM62.708 239.77C63.148 239.095 63.698 238.567 64.358 238.186C65.018 237.79 65.7514 237.592 66.558 237.592V241.574H65.524C64.5854 241.574 63.8814 241.779 63.412 242.19C62.9427 242.586 62.708 243.29 62.708 244.302V250H58.946V237.724H62.708V239.77ZM72.1182 239.77C72.5582 239.095 73.1082 238.567 73.7682 238.186C74.4282 237.79 75.1615 237.592 75.9682 237.592V241.574H74.9342C73.9955 241.574 73.2915 241.779 72.8222 242.19C72.3529 242.586 72.1182 243.29 72.1182 244.302V250H68.3562V237.724H72.1182V239.77ZM89.3383 243.664C89.3383 244.016 89.3163 244.383 89.2723 244.764H80.7583C80.817 245.527 81.059 246.113 81.4843 246.524C81.9243 246.92 82.4597 247.118 83.0903 247.118C84.029 247.118 84.6817 246.722 85.0483 245.93H89.0523C88.847 246.737 88.473 247.463 87.9303 248.108C87.4023 248.753 86.735 249.259 85.9283 249.626C85.1217 249.993 84.2197 250.176 83.2223 250.176C82.0197 250.176 80.949 249.919 80.0103 249.406C79.0717 248.893 78.3383 248.159 77.8103 247.206C77.2823 246.253 77.0183 245.138 77.0183 243.862C77.0183 242.586 77.275 241.471 77.7883 240.518C78.3163 239.565 79.0497 238.831 79.9883 238.318C80.927 237.805 82.005 237.548 83.2223 237.548C84.4103 237.548 85.4663 237.797 86.3903 238.296C87.3143 238.795 88.033 239.506 88.5463 240.43C89.0743 241.354 89.3383 242.432 89.3383 243.664ZM85.4883 242.674C85.4883 242.029 85.2683 241.515 84.8283 241.134C84.3883 240.753 83.8383 240.562 83.1783 240.562C82.5477 240.562 82.0123 240.745 81.5723 241.112C81.147 241.479 80.883 241.999 80.7803 242.674H85.4883ZM98.803 237.592C100.24 237.592 101.384 238.061 102.235 239C103.1 239.924 103.533 241.2 103.533 242.828V250H99.793V243.334C99.793 242.513 99.5803 241.875 99.155 241.42C98.7297 240.965 98.1577 240.738 97.439 240.738C96.7203 240.738 96.1483 240.965 95.723 241.42C95.2977 241.875 95.085 242.513 95.085 243.334V250H91.323V237.724H95.085V239.352C95.4663 238.809 95.9797 238.384 96.625 238.076C97.2703 237.753 97.9963 237.592 98.803 237.592ZM112.989 246.81V250H111.075C109.711 250 108.648 249.67 107.885 249.01C107.123 248.335 106.741 247.243 106.741 245.732V240.848H105.245V237.724H106.741V234.732H110.503V237.724H112.967V240.848H110.503V245.776C110.503 246.143 110.591 246.407 110.767 246.568C110.943 246.729 111.237 246.81 111.647 246.81H112.989ZM118.847 233.72V250H115.085V233.72H118.847ZM134.113 237.724L126.413 255.83H122.365L125.181 249.582L120.187 237.724H124.389L127.227 245.402L130.043 237.724H134.113ZM143.897 247.096H148.825V250H140.135V234.556H143.897V247.096ZM162.192 243.664C162.192 244.016 162.17 244.383 162.126 244.764H153.612C153.671 245.527 153.913 246.113 154.338 246.524C154.778 246.92 155.313 247.118 155.944 247.118C156.883 247.118 157.535 246.722 157.902 245.93H161.906C161.701 246.737 161.327 247.463 160.784 248.108C160.256 248.753 159.589 249.259 158.782 249.626C157.975 249.993 157.073 250.176 156.076 250.176C154.873 250.176 153.803 249.919 152.864 249.406C151.925 248.893 151.192 248.159 150.664 247.206C150.136 246.253 149.872 245.138 149.872 243.862C149.872 242.586 150.129 241.471 150.642 240.518C151.17 239.565 151.903 238.831 152.842 238.318C153.781 237.805 154.859 237.548 156.076 237.548C157.264 237.548 158.32 237.797 159.244 238.296C160.168 238.795 160.887 239.506 161.4 240.43C161.928 241.354 162.192 242.432 162.192 243.664ZM158.342 242.674C158.342 242.029 158.122 241.515 157.682 241.134C157.242 240.753 156.692 240.562 156.032 240.562C155.401 240.562 154.866 240.745 154.426 241.112C154.001 241.479 153.737 241.999 153.634 242.674H158.342ZM163.429 243.84C163.429 242.579 163.663 241.471 164.133 240.518C164.617 239.565 165.269 238.831 166.091 238.318C166.912 237.805 167.829 237.548 168.841 237.548C169.706 237.548 170.461 237.724 171.107 238.076C171.767 238.428 172.273 238.89 172.625 239.462V237.724H176.387V250H172.625V248.262C172.258 248.834 171.745 249.296 171.085 249.648C170.439 250 169.684 250.176 168.819 250.176C167.821 250.176 166.912 249.919 166.091 249.406C165.269 248.878 164.617 248.137 164.133 247.184C163.663 246.216 163.429 245.101 163.429 243.84ZM172.625 243.862C172.625 242.923 172.361 242.183 171.833 241.64C171.319 241.097 170.689 240.826 169.941 240.826C169.193 240.826 168.555 241.097 168.027 241.64C167.513 242.168 167.257 242.901 167.257 243.84C167.257 244.779 167.513 245.527 168.027 246.084C168.555 246.627 169.193 246.898 169.941 246.898C170.689 246.898 171.319 246.627 171.833 246.084C172.361 245.541 172.625 244.801 172.625 243.862ZM182.87 239.77C183.31 239.095 183.86 238.567 184.52 238.186C185.18 237.79 185.913 237.592 186.72 237.592V241.574H185.686C184.747 241.574 184.043 241.779 183.574 242.19C183.105 242.586 182.87 243.29 182.87 244.302V250H179.108V237.724H182.87V239.77ZM195.998 237.592C197.436 237.592 198.58 238.061 199.43 239C200.296 239.924 200.728 241.2 200.728 242.828V250H196.988V243.334C196.988 242.513 196.776 241.875 196.35 241.42C195.925 240.965 195.353 240.738 194.634 240.738C193.916 240.738 193.344 240.965 192.918 241.42C192.493 241.875 192.28 242.513 192.28 243.334V250H188.518V237.724H192.28V239.352C192.662 238.809 193.175 238.384 193.82 238.076C194.466 237.753 195.192 237.592 195.998 237.592ZM205.235 236.448C204.575 236.448 204.032 236.257 203.607 235.876C203.196 235.48 202.991 234.996 202.991 234.424C202.991 233.837 203.196 233.353 203.607 232.972C204.032 232.576 204.575 232.378 205.235 232.378C205.88 232.378 206.408 232.576 206.819 232.972C207.244 233.353 207.457 233.837 207.457 234.424C207.457 234.996 207.244 235.48 206.819 235.876C206.408 236.257 205.88 236.448 205.235 236.448ZM207.105 237.724V250H203.343V237.724H207.105ZM217.311 237.592C218.748 237.592 219.892 238.061 220.743 239C221.608 239.924 222.041 241.2 222.041 242.828V250H218.301V243.334C218.301 242.513 218.088 241.875 217.663 241.42C217.237 240.965 216.665 240.738 215.947 240.738C215.228 240.738 214.656 240.965 214.231 241.42C213.805 241.875 213.593 242.513 213.593 243.334V250H209.831V237.724H213.593V239.352C213.974 238.809 214.487 238.384 215.133 238.076C215.778 237.753 216.504 237.592 217.311 237.592ZM229.319 237.548C230.184 237.548 230.94 237.724 231.585 238.076C232.245 238.428 232.751 238.89 233.103 239.462V237.724H236.865V249.978C236.865 251.107 236.638 252.127 236.183 253.036C235.743 253.96 235.061 254.693 234.137 255.236C233.228 255.779 232.091 256.05 230.727 256.05C228.908 256.05 227.434 255.617 226.305 254.752C225.176 253.901 224.53 252.743 224.369 251.276H228.087C228.204 251.745 228.483 252.112 228.923 252.376C229.363 252.655 229.906 252.794 230.551 252.794C231.328 252.794 231.944 252.567 232.399 252.112C232.868 251.672 233.103 250.961 233.103 249.978V248.24C232.736 248.812 232.23 249.281 231.585 249.648C230.94 250 230.184 250.176 229.319 250.176C228.307 250.176 227.39 249.919 226.569 249.406C225.748 248.878 225.095 248.137 224.611 247.184C224.142 246.216 223.907 245.101 223.907 243.84C223.907 242.579 224.142 241.471 224.611 240.518C225.095 239.565 225.748 238.831 226.569 238.318C227.39 237.805 228.307 237.548 229.319 237.548ZM233.103 243.862C233.103 242.923 232.839 242.183 232.311 241.64C231.798 241.097 231.167 240.826 230.419 240.826C229.671 240.826 229.033 241.097 228.505 241.64C227.992 242.168 227.735 242.901 227.735 243.84C227.735 244.779 227.992 245.527 228.505 246.084C229.033 246.627 229.671 246.898 230.419 246.898C231.167 246.898 231.798 246.627 232.311 246.084C232.839 245.541 233.103 244.801 233.103 243.862ZM241.347 250.176C240.687 250.176 240.144 249.985 239.719 249.604C239.308 249.208 239.103 248.724 239.103 248.152C239.103 247.565 239.308 247.074 239.719 246.678C240.144 246.282 240.687 246.084 241.347 246.084C241.992 246.084 242.52 246.282 242.931 246.678C243.356 247.074 243.569 247.565 243.569 248.152C243.569 248.724 243.356 249.208 242.931 249.604C242.52 249.985 241.992 250.176 241.347 250.176ZM241.347 241.222C240.687 241.222 240.144 241.031 239.719 240.65C239.308 240.254 239.103 239.77 239.103 239.198C239.103 238.611 239.308 238.12 239.719 237.724C240.144 237.328 240.687 237.13 241.347 237.13C241.992 237.13 242.52 237.328 242.931 237.724C243.356 238.12 243.569 238.611 243.569 239.198C243.569 239.77 243.356 240.254 242.931 240.65C242.52 241.031 241.992 241.222 241.347 241.222ZM258.377 250L255.165 244.17H254.263V250H250.501V234.556H256.815C258.032 234.556 259.066 234.769 259.917 235.194C260.782 235.619 261.427 236.206 261.853 236.954C262.278 237.687 262.491 238.509 262.491 239.418C262.491 240.445 262.197 241.361 261.611 242.168C261.039 242.975 260.188 243.547 259.059 243.884L262.623 250H258.377ZM254.263 241.508H256.595C257.284 241.508 257.797 241.339 258.135 241.002C258.487 240.665 258.663 240.188 258.663 239.572C258.663 238.985 258.487 238.523 258.135 238.186C257.797 237.849 257.284 237.68 256.595 237.68H254.263V241.508ZM276.424 243.664C276.424 244.016 276.402 244.383 276.358 244.764H267.844C267.903 245.527 268.145 246.113 268.57 246.524C269.01 246.92 269.546 247.118 270.176 247.118C271.115 247.118 271.768 246.722 272.134 245.93H276.138C275.933 246.737 275.559 247.463 275.016 248.108C274.488 248.753 273.821 249.259 273.014 249.626C272.208 249.993 271.306 250.176 270.308 250.176C269.106 250.176 268.035 249.919 267.096 249.406C266.158 248.893 265.424 248.159 264.896 247.206C264.368 246.253 264.104 245.138 264.104 243.862C264.104 242.586 264.361 241.471 264.874 240.518C265.402 239.565 266.136 238.831 267.074 238.318C268.013 237.805 269.091 237.548 270.308 237.548C271.496 237.548 272.552 237.797 273.476 238.296C274.4 238.795 275.119 239.506 275.632 240.43C276.16 241.354 276.424 242.432 276.424 243.664ZM272.574 242.674C272.574 242.029 272.354 241.515 271.914 241.134C271.474 240.753 270.924 240.562 270.264 240.562C269.634 240.562 269.098 240.745 268.658 241.112C268.233 241.479 267.969 241.999 267.866 242.674H272.574ZM277.661 243.84C277.661 242.579 277.896 241.471 278.365 240.518C278.849 239.565 279.502 238.831 280.323 238.318C281.144 237.805 282.061 237.548 283.073 237.548C283.938 237.548 284.694 237.724 285.339 238.076C285.999 238.428 286.505 238.89 286.857 239.462V237.724H290.619V250H286.857V248.262C286.49 248.834 285.977 249.296 285.317 249.648C284.672 250 283.916 250.176 283.051 250.176C282.054 250.176 281.144 249.919 280.323 249.406C279.502 248.878 278.849 248.137 278.365 247.184C277.896 246.216 277.661 245.101 277.661 243.84ZM286.857 243.862C286.857 242.923 286.593 242.183 286.065 241.64C285.552 241.097 284.921 240.826 284.173 240.826C283.425 240.826 282.787 241.097 282.259 241.64C281.746 242.168 281.489 242.901 281.489 243.84C281.489 244.779 281.746 245.527 282.259 246.084C282.787 246.627 283.425 246.898 284.173 246.898C284.921 246.898 285.552 246.627 286.065 246.084C286.593 245.541 286.857 244.801 286.857 243.862ZM292.593 243.862C292.593 242.586 292.849 241.471 293.363 240.518C293.891 239.565 294.617 238.831 295.541 238.318C296.479 237.805 297.55 237.548 298.753 237.548C300.293 237.548 301.576 237.951 302.603 238.758C303.644 239.565 304.326 240.701 304.649 242.168H300.645C300.307 241.229 299.655 240.76 298.687 240.76C297.997 240.76 297.447 241.031 297.037 241.574C296.626 242.102 296.421 242.865 296.421 243.862C296.421 244.859 296.626 245.629 297.037 246.172C297.447 246.7 297.997 246.964 298.687 246.964C299.655 246.964 300.307 246.495 300.645 245.556H304.649C304.326 246.993 303.644 248.123 302.603 248.944C301.561 249.765 300.278 250.176 298.753 250.176C297.55 250.176 296.479 249.919 295.541 249.406C294.617 248.893 293.891 248.159 293.363 247.206C292.849 246.253 292.593 245.138 292.593 243.862ZM313.503 246.81V250H311.589C310.225 250 309.162 249.67 308.399 249.01C307.636 248.335 307.255 247.243 307.255 245.732V240.848H305.759V237.724H307.255V234.732H311.017V237.724H313.481V240.848H311.017V245.776C311.017 246.143 311.105 246.407 311.281 246.568C311.457 246.729 311.75 246.81 312.161 246.81H313.503ZM334.076 250H330.314L324.022 240.474V250H320.26V234.556H324.022L330.314 244.126V234.556H334.076V250ZM336.055 243.84C336.055 242.579 336.29 241.471 336.759 240.518C337.243 239.565 337.896 238.831 338.717 238.318C339.539 237.805 340.455 237.548 341.467 237.548C342.333 237.548 343.088 237.724 343.733 238.076C344.393 238.428 344.899 238.89 345.251 239.462V237.724H349.013V250H345.251V248.262C344.885 248.834 344.371 249.296 343.711 249.648C343.066 250 342.311 250.176 341.445 250.176C340.448 250.176 339.539 249.919 338.717 249.406C337.896 248.878 337.243 248.137 336.759 247.184C336.29 246.216 336.055 245.101 336.055 243.84ZM345.251 243.862C345.251 242.923 344.987 242.183 344.459 241.64C343.946 241.097 343.315 240.826 342.567 240.826C341.819 240.826 341.181 241.097 340.653 241.64C340.14 242.168 339.883 242.901 339.883 243.84C339.883 244.779 340.14 245.527 340.653 246.084C341.181 246.627 341.819 246.898 342.567 246.898C343.315 246.898 343.946 246.627 344.459 246.084C344.987 245.541 345.251 244.801 345.251 243.862ZM358.577 246.81V250H356.663C355.299 250 354.236 249.67 353.473 249.01C352.71 248.335 352.329 247.243 352.329 245.732V240.848H350.833V237.724H352.329V234.732H356.091V237.724H358.555V240.848H356.091V245.776C356.091 246.143 356.179 246.407 356.355 246.568C356.531 246.729 356.824 246.81 357.235 246.81H358.577ZM362.565 236.448C361.905 236.448 361.362 236.257 360.937 235.876C360.526 235.48 360.321 234.996 360.321 234.424C360.321 233.837 360.526 233.353 360.937 232.972C361.362 232.576 361.905 232.378 362.565 232.378C363.21 232.378 363.738 232.576 364.149 232.972C364.574 233.353 364.787 233.837 364.787 234.424C364.787 234.996 364.574 235.48 364.149 235.876C363.738 236.257 363.21 236.448 362.565 236.448ZM364.435 237.724V250H360.673V237.724H364.435ZM372.683 246.48L375.345 237.724H379.349L374.993 250H370.351L365.995 237.724H370.021L372.683 246.48ZM392.504 243.664C392.504 244.016 392.482 244.383 392.438 244.764H383.924C383.983 245.527 384.225 246.113 384.65 246.524C385.09 246.92 385.626 247.118 386.256 247.118C387.195 247.118 387.848 246.722 388.214 245.93H392.218C392.013 246.737 391.639 247.463 391.096 248.108C390.568 248.753 389.901 249.259 389.094 249.626C388.288 249.993 387.386 250.176 386.388 250.176C385.186 250.176 384.115 249.919 383.176 249.406C382.238 248.893 381.504 248.159 380.976 247.206C380.448 246.253 380.184 245.138 380.184 243.862C380.184 242.586 380.441 241.471 380.954 240.518C381.482 239.565 382.216 238.831 383.154 238.318C384.093 237.805 385.171 237.548 386.388 237.548C387.576 237.548 388.632 237.797 389.556 238.296C390.48 238.795 391.199 239.506 391.712 240.43C392.24 241.354 392.504 242.432 392.504 243.664ZM388.654 242.674C388.654 242.029 388.434 241.515 387.994 241.134C387.554 240.753 387.004 240.562 386.344 240.562C385.714 240.562 385.178 240.745 384.738 241.112C384.313 241.479 384.049 241.999 383.946 242.674H388.654Z" fill="#012747"/>
<path d="M74.726 143.256C74.726 141.731 75.056 140.374 75.716 139.186C76.376 137.983 77.2927 137.052 78.466 136.392C79.654 135.717 80.996 135.38 82.492 135.38C84.3253 135.38 85.8947 135.864 87.2 136.832C88.5053 137.8 89.378 139.12 89.818 140.792H85.682C85.374 140.147 84.934 139.655 84.362 139.318C83.8047 138.981 83.1667 138.812 82.448 138.812C81.2893 138.812 80.3507 139.215 79.632 140.022C78.9133 140.829 78.554 141.907 78.554 143.256C78.554 144.605 78.9133 145.683 79.632 146.49C80.3507 147.297 81.2893 147.7 82.448 147.7C83.1667 147.7 83.8047 147.531 84.362 147.194C84.934 146.857 85.374 146.365 85.682 145.72H89.818C89.378 147.392 88.5053 148.712 87.2 149.68C85.8947 150.633 84.3253 151.11 82.492 151.11C80.996 151.11 79.654 150.78 78.466 150.12C77.2927 149.445 76.376 148.514 75.716 147.326C75.056 146.138 74.726 144.781 74.726 143.256ZM109.612 135.556V151H105.85V141.738L102.396 151H99.3598L95.8838 141.716V151H92.1218V135.556H96.5658L100.9 146.248L105.19 135.556H109.612ZM124.087 140.528C124.087 141.423 123.882 142.244 123.471 142.992C123.06 143.725 122.43 144.319 121.579 144.774C120.728 145.229 119.672 145.456 118.411 145.456H116.079V151H112.317V135.556H118.411C119.643 135.556 120.684 135.769 121.535 136.194C122.386 136.619 123.024 137.206 123.449 137.954C123.874 138.702 124.087 139.56 124.087 140.528ZM118.125 142.464C118.844 142.464 119.379 142.295 119.731 141.958C120.083 141.621 120.259 141.144 120.259 140.528C120.259 139.912 120.083 139.435 119.731 139.098C119.379 138.761 118.844 138.592 118.125 138.592H116.079V142.464H118.125Z" fill="#012747"/>
<path d="M285.06 119.556V128.796C285.06 129.72 285.287 130.431 285.742 130.93C286.197 131.429 286.864 131.678 287.744 131.678C288.624 131.678 289.299 131.429 289.768 130.93C290.237 130.431 290.472 129.72 290.472 128.796V119.556H294.234V128.774C294.234 130.153 293.941 131.319 293.354 132.272C292.767 133.225 291.975 133.944 290.978 134.428C289.995 134.912 288.895 135.154 287.678 135.154C286.461 135.154 285.368 134.919 284.4 134.45C283.447 133.966 282.691 133.247 282.134 132.294C281.577 131.326 281.298 130.153 281.298 128.774V119.556H285.06ZM306.336 135L303.19 130.27L300.418 135H296.15L301.1 127.146L296.04 119.556H300.418L303.52 124.22L306.248 119.556H310.516L305.61 127.344L310.714 135H306.336ZM320.984 114.1L315.088 139.114H311.458L317.354 114.1H320.984ZM326.267 119.556V128.796C326.267 129.72 326.494 130.431 326.949 130.93C327.404 131.429 328.071 131.678 328.951 131.678C329.831 131.678 330.506 131.429 330.975 130.93C331.444 130.431 331.679 129.72 331.679 128.796V119.556H335.441V128.774C335.441 130.153 335.148 131.319 334.561 132.272C333.974 133.225 333.182 133.944 332.185 134.428C331.202 134.912 330.102 135.154 328.885 135.154C327.668 135.154 326.575 134.919 325.607 134.45C324.654 133.966 323.898 133.247 323.341 132.294C322.784 131.326 322.505 130.153 322.505 128.774V119.556H326.267ZM341.845 119.556V135H338.083V119.556H341.845ZM287.15 152.556C288.778 152.556 290.201 152.879 291.418 153.524C292.635 154.169 293.574 155.079 294.234 156.252C294.909 157.411 295.246 158.753 295.246 160.278C295.246 161.789 294.909 163.131 294.234 164.304C293.574 165.477 292.628 166.387 291.396 167.032C290.179 167.677 288.763 168 287.15 168H281.364V152.556H287.15ZM286.908 164.744C288.331 164.744 289.438 164.355 290.23 163.578C291.022 162.801 291.418 161.701 291.418 160.278C291.418 158.855 291.022 157.748 290.23 156.956C289.438 156.164 288.331 155.768 286.908 155.768H285.126V164.744H286.908ZM308.92 161.664C308.92 162.016 308.898 162.383 308.854 162.764H300.34C300.399 163.527 300.641 164.113 301.066 164.524C301.506 164.92 302.042 165.118 302.672 165.118C303.611 165.118 304.264 164.722 304.63 163.93H308.634C308.429 164.737 308.055 165.463 307.512 166.108C306.984 166.753 306.317 167.259 305.51 167.626C304.704 167.993 303.802 168.176 302.804 168.176C301.602 168.176 300.531 167.919 299.592 167.406C298.654 166.893 297.92 166.159 297.392 165.206C296.864 164.253 296.6 163.138 296.6 161.862C296.6 160.586 296.857 159.471 297.37 158.518C297.898 157.565 298.632 156.831 299.57 156.318C300.509 155.805 301.587 155.548 302.804 155.548C303.992 155.548 305.048 155.797 305.972 156.296C306.896 156.795 307.615 157.506 308.128 158.43C308.656 159.354 308.92 160.432 308.92 161.664ZM305.07 160.674C305.07 160.029 304.85 159.515 304.41 159.134C303.97 158.753 303.42 158.562 302.76 158.562C302.13 158.562 301.594 158.745 301.154 159.112C300.729 159.479 300.465 159.999 300.362 160.674H305.07ZM315.899 168.176C314.828 168.176 313.875 167.993 313.039 167.626C312.203 167.259 311.543 166.761 311.059 166.13C310.575 165.485 310.304 164.766 310.245 163.974H313.963C314.007 164.399 314.205 164.744 314.557 165.008C314.909 165.272 315.342 165.404 315.855 165.404C316.324 165.404 316.684 165.316 316.933 165.14C317.197 164.949 317.329 164.707 317.329 164.414C317.329 164.062 317.146 163.805 316.779 163.644C316.412 163.468 315.818 163.277 314.997 163.072C314.117 162.867 313.384 162.654 312.797 162.434C312.21 162.199 311.704 161.84 311.279 161.356C310.854 160.857 310.641 160.19 310.641 159.354C310.641 158.65 310.832 158.012 311.213 157.44C311.609 156.853 312.181 156.391 312.929 156.054C313.692 155.717 314.594 155.548 315.635 155.548C317.175 155.548 318.385 155.929 319.265 156.692C320.16 157.455 320.673 158.467 320.805 159.728H317.329C317.27 159.303 317.08 158.965 316.757 158.716C316.449 158.467 316.038 158.342 315.525 158.342C315.085 158.342 314.748 158.43 314.513 158.606C314.278 158.767 314.161 158.995 314.161 159.288C314.161 159.64 314.344 159.904 314.711 160.08C315.092 160.256 315.679 160.432 316.471 160.608C317.38 160.843 318.121 161.077 318.693 161.312C319.265 161.532 319.764 161.899 320.189 162.412C320.629 162.911 320.856 163.585 320.871 164.436C320.871 165.155 320.666 165.8 320.255 166.372C319.859 166.929 319.28 167.369 318.517 167.692C317.769 168.015 316.896 168.176 315.899 168.176ZM325.065 154.448C324.405 154.448 323.862 154.257 323.437 153.876C323.026 153.48 322.821 152.996 322.821 152.424C322.821 151.837 323.026 151.353 323.437 150.972C323.862 150.576 324.405 150.378 325.065 150.378C325.71 150.378 326.238 150.576 326.649 150.972C327.074 151.353 327.287 151.837 327.287 152.424C327.287 152.996 327.074 153.48 326.649 153.876C326.238 154.257 325.71 154.448 325.065 154.448ZM326.935 155.724V168H323.173V155.724H326.935ZM334.325 155.548C335.19 155.548 335.946 155.724 336.591 156.076C337.251 156.428 337.757 156.89 338.109 157.462V155.724H341.871V167.978C341.871 169.107 341.644 170.127 341.189 171.036C340.749 171.96 340.067 172.693 339.143 173.236C338.234 173.779 337.097 174.05 335.733 174.05C333.914 174.05 332.44 173.617 331.311 172.752C330.182 171.901 329.536 170.743 329.375 169.276H333.093C333.21 169.745 333.489 170.112 333.929 170.376C334.369 170.655 334.912 170.794 335.557 170.794C336.334 170.794 336.95 170.567 337.405 170.112C337.874 169.672 338.109 168.961 338.109 167.978V166.24C337.742 166.812 337.236 167.281 336.591 167.648C335.946 168 335.19 168.176 334.325 168.176C333.313 168.176 332.396 167.919 331.575 167.406C330.754 166.878 330.101 166.137 329.617 165.184C329.148 164.216 328.913 163.101 328.913 161.84C328.913 160.579 329.148 159.471 329.617 158.518C330.101 157.565 330.754 156.831 331.575 156.318C332.396 155.805 333.313 155.548 334.325 155.548ZM338.109 161.862C338.109 160.923 337.845 160.183 337.317 159.64C336.804 159.097 336.173 158.826 335.425 158.826C334.677 158.826 334.039 159.097 333.511 159.64C332.998 160.168 332.741 160.901 332.741 161.84C332.741 162.779 332.998 163.527 333.511 164.084C334.039 164.627 334.677 164.898 335.425 164.898C336.173 164.898 336.804 164.627 337.317 164.084C337.845 163.541 338.109 162.801 338.109 161.862ZM352.073 155.592C353.51 155.592 354.654 156.061 355.505 157C356.37 157.924 356.803 159.2 356.803 160.828V168H353.063V161.334C353.063 160.513 352.85 159.875 352.425 159.42C351.999 158.965 351.427 158.738 350.709 158.738C349.99 158.738 349.418 158.965 348.993 159.42C348.567 159.875 348.355 160.513 348.355 161.334V168H344.593V155.724H348.355V157.352C348.736 156.809 349.249 156.384 349.895 156.076C350.54 155.753 351.266 155.592 352.073 155.592Z" fill="#012747"/>
</svg>
